<svg aria-hidden="true" style="position: absolute; width: 0; height: 0; overflow: hidden;" version="1.1" xmlns="http://www.w3.org/2000/svg" xmlns:xlink="http://www.w3.org/1999/xlink">
<defs>
<symbol id="icon-flower" viewBox="0 0 302 302">
 <path  d="m302,117.79c0-29.18-23.66-52.84-52.84-52.84-.12,0-.23,0-.34,0-4.27-.05-8.41.5-12.43,1.56-.43.11-.85.25-1.28.37.12-.43.26-.84.37-1.27,1.05-4.02,1.61-8.16,1.56-12.43,0-.12,0-.23,0-.34,0-29.18-23.65-52.84-52.84-52.84-12.58,0-26.38,4.37-33.21,7.35-6.78-3.34-20.63-7.35-33.21-7.35-29.18,0-52.84,23.66-52.84,52.84,0,.12,0,.23,0,.34-.05,4.27.5,8.41,1.55,12.43.11.43.25.85.37,1.28-.43-.12-.84-.26-1.27-.37-4.02-1.05-8.16-1.61-12.43-1.56-.12,0-.23,0-.35,0C23.65,64.95,0,88.61,0,117.79c0,12.58,4.37,26.38,7.35,33.21-3.34,6.78-7.35,20.63-7.35,33.21,0,29.18,23.65,52.84,52.84,52.84.12,0,.23,0,.35,0,4.27.05,8.41-.5,12.43-1.56.43-.11.85-.25,1.28-.37-.12.43-.26.84-.37,1.27-1.05,4.02-1.61,8.16-1.56,12.43,0,.12,0,.23,0,.34,0,29.18,23.65,52.84,52.84,52.84,12.59,0,26.38-4.37,33.21-7.35,6.78,3.34,20.63,7.35,33.21,7.35,29.18,0,52.84-23.66,52.84-52.84,0-.12,0-.23,0-.34.05-4.27-.5-8.41-1.56-12.43-.11-.43-.25-.85-.37-1.28.43.12.84.26,1.27.37,4.02,1.05,8.16,1.61,12.43,1.56.12,0,.23,0,.34,0,29.18,0,52.84-23.66,52.84-52.84,0-12.58-4.37-26.38-7.34-33.21,3.34-6.78,7.34-20.63,7.34-33.21ZM117.79,17.83c9.65,0,20.82,3.29,25.33,5.51l7.42,3.65,7.58-3.3c5.41-2.36,16.83-5.86,26.09-5.86,19.23,0,34.88,15.58,35,34.78v.2s0,.29,0,.29v.29c.03,2.55-.28,5.06-.97,7.69l-.03.11-.03.11c-.86,3.48-2.26,6.79-4.14,9.85l-.14.23-.14.24c-3.1,5.4-7.61,11.22-13.78,17.77-16.2,16.52-37.26,30.22-48.74,37.1-15.4-9.23-48-30.65-62.66-54.37-.12-.2-.25-.4-.39-.62-.18-.3-.35-.6-.52-.9l-.32-.57c-1.6-2.82-2.79-5.76-3.53-8.74l-.03-.11-.03-.11c-.69-2.63-1.01-5.14-.97-7.69v-.19s0-.19,0-.19v-.33c.06-19.24,15.74-34.87,35-34.87Zm-56.48,200.35l-.11.03-.11.03c-2.63.69-5.14,1.01-7.69.98h-.19s-.19,0-.19,0h-.33c-19.24-.06-34.87-15.74-34.87-35,0-9.65,3.29-20.82,5.51-25.33l3.65-7.42-3.3-7.58c-2.36-5.41-5.86-16.82-5.86-26.09,0-19.23,15.58-34.88,34.78-35h.2s.29,0,.29,0h.15s.15,0,.15,0c2.55-.03,5.06.29,7.69.98l.11.03.11.03c3.48.86,6.79,2.26,9.85,4.14l.23.14.24.14c5.4,3.1,11.22,7.61,17.77,13.78,16.52,16.2,30.22,37.26,37.1,48.74-9.23,15.4-30.65,48-54.37,62.66-.2.12-.4.25-.62.39-.3.18-.6.35-.9.52l-.57.32c-2.82,1.6-5.76,2.79-8.74,3.53Zm122.9,65.99c-9.65,0-20.82-3.29-25.33-5.51l-7.42-3.65-7.58,3.3c-5.41,2.36-16.83,5.86-26.09,5.86-19.23,0-34.88-15.58-35-34.78v-.2s0-.29,0-.29v-.15s0-.15,0-.15c-.03-2.55.29-5.06.97-7.69l.03-.11.03-.11c.86-3.48,2.26-6.79,4.14-9.85l.14-.23.14-.24c3.1-5.4,7.61-11.22,13.78-17.77,16.2-16.52,37.26-30.22,48.74-37.1,15.4,9.23,48,30.65,62.66,54.37.12.2.25.4.39.62.18.3.35.6.52.9l.32.57c1.6,2.82,2.79,5.76,3.53,8.74l.03.11.03.11c.69,2.63,1.01,5.15.97,7.69v.19s0,.19,0,.19v.33c-.06,19.24-15.74,34.87-35,34.87Zm94.1-126.05c2.36,5.41,5.86,16.82,5.86,26.09,0,19.23-15.58,34.88-34.78,35h-.2s-.29,0-.29,0h-.29c-2.55.03-5.06-.29-7.69-.97l-.11-.03-.11-.03c-3.48-.86-6.79-2.26-9.85-4.14l-.23-.14-.24-.14c-5.4-3.1-11.22-7.61-17.77-13.78-16.52-16.2-30.22-37.26-37.1-48.74,9.23-15.4,30.65-48,54.37-62.66.2-.12.4-.25.62-.39.3-.18.6-.35.9-.52l.57-.32c2.82-1.6,5.76-2.79,8.74-3.53l.11-.03.11-.03c2.63-.69,5.14-1.01,7.69-.98h.19s.19,0,.19,0h.33c19.24.06,34.87,15.74,34.87,35,0,9.65-3.29,20.82-5.51,25.33l-3.65,7.42,3.3,7.58Z"></path>
</symbol>
<symbol id="icon-phone" viewBox="0 0 32 32">
<path d="M3.633 2.987c-1.275 1.080-2.079 2.681-2.079 4.471 0 0.376 0.035 0.743 0.103 1.099l-0.006-0.037c1.315 5.528 4.042 10.292 7.779 14.051l-0.001-0.001c3.757 3.736 8.522 6.463 13.851 7.737l0.2 0.040c0.34 0.091 0.731 0.143 1.134 0.144h0c1.754-0.106 3.304-0.903 4.395-2.119l0.005-0.006c0.657-0.556 1.104-1.341 1.217-2.231l0.002-0.017 0.421-3.060c0.008-0.058 0.013-0.125 0.013-0.193 0-0.645-0.433-1.188-1.025-1.354l-0.010-0.002-5.957-1.633c-0.111-0.032-0.239-0.050-0.371-0.050-0.473 0-0.891 0.233-1.146 0.591l-0.003 0.004-1.565 2.215c-0.154 0.206-0.397 0.338-0.671 0.338-0.11 0-0.216-0.021-0.312-0.060l0.006 0.002c-2.356-1.159-4.363-2.656-6.051-4.456l-0.010-0.011c-1.811-1.698-3.308-3.705-4.413-5.941l-0.054-0.121c-0.037-0.091-0.058-0.196-0.058-0.306 0-0.274 0.132-0.517 0.336-0.669l0.002-0.002 2.328-1.564c0.363-0.258 0.597-0.677 0.597-1.15 0-0.132-0.018-0.26-0.052-0.381l0.002 0.010-1.637-5.956c-0.168-0.601-0.711-1.035-1.356-1.035-0.068 0-0.136 0.005-0.201 0.014l0.008-0.001-3.173 0.421c-0.907 0.115-1.692 0.562-2.244 1.214l-0.004 0.005zM4.673 3.831c0.354-0.413 0.856-0.689 1.423-0.746l0.009-0.001 3.143-0.417c0.033 0.001 0.060 0.023 0.069 0.053l0 0.001 1.635 5.957c0.002 0.008 0.003 0.016 0.003 0.025 0 0.013-0.002 0.025-0.006 0.037l0-0.001-2.377 1.6c-0.536 0.4-0.879 1.033-0.879 1.746 0 0.284 0.055 0.556 0.154 0.805l-0.005-0.015c1.221 2.538 2.821 4.698 4.754 6.506l0.012 0.011c1.819 1.946 3.979 3.546 6.389 4.711l0.129 0.056c0.234 0.095 0.505 0.149 0.789 0.149 0.001 0 0.003 0 0.004 0h-0c0.721-0.004 1.36-0.356 1.756-0.897l0.004-0.006 1.564-2.216c0.013-0.018 0.034-0.030 0.057-0.030 0.002 0 0.004 0 0.005 0h-0l0.017 0.001 5.956 1.635c0.031 0.009 0.054 0.037 0.054 0.071 0 0.003-0 0.006-0.001 0.010l0-0-0.415 3.015c-0.057 0.578-0.334 1.082-0.745 1.434l-0.003 0.002-0.099 0.097c-0.863 0.97-2.075 1.613-3.438 1.732l-0.020 0.001c-0.286-0-0.564-0.037-0.828-0.106l0.023 0.005c-5.289-1.251-9.848-3.858-13.441-7.434l0.001 0.001c-3.571-3.59-6.175-8.146-7.386-13.24l-0.038-0.19c-0.033-0.207-0.051-0.446-0.051-0.689 0-1.435 0.652-2.717 1.676-3.567l0.008-0.006z"></path>
</symbol>
<symbol id="icon-telegram" viewBox="0 0 32 32">
<path stroke-linejoin="round" stroke-linecap="butt" stroke-miterlimit="4" stroke-width="1" d="M27.22 5.653c0.76 0 1.333 0.667 1.027 1.907l-3.72 17.533c-0.26 1.247-1.013 1.547-2.053 0.967l-8.873-6.553c-0.068-0.049-0.111-0.128-0.111-0.217s0.044-0.168 0.11-0.216l0.001-0.001 10.247-9.253c0.467-0.413-0.1-0.613-0.713-0.24l-12.86 8.113c-0.047 0.031-0.105 0.050-0.168 0.050-0.036 0-0.070-0.006-0.101-0.017l0.002 0.001-5.46-1.727c-1.213-0.353-1.213-1.187 0.273-1.78l21.847-8.427c0.162-0.079 0.35-0.13 0.55-0.14l0.003-0z"></path>
</symbol>
<symbol id="icon-email" viewBox="0 0 32 32" fill="none" stroke="currentColor">
  <path stroke-linejoin="round" stroke-linecap="round" stroke-width="2"
    d="M2.805 5.335h26.39c1.273 0 2.305 1.032 2.305 2.305v16.555c0 1.273-1.032 2.305-2.305 2.305h-26.39c-1.273 0-2.305-1.032-2.305-2.305v-16.555c0-1.273 1.032-2.305 2.305-2.305z">
  </path>

  <path stroke-linejoin="round" stroke-linecap="round" stroke-width="2"
    d="M2.5 8l13.5 8 13.5-8">
  </path>

  <path stroke-linejoin="round" stroke-linecap="round" stroke-width="2"
    d="M12.455 13.9l-9.955 8.1">
  </path>

  <path stroke-linejoin="round" stroke-linecap="round" stroke-width="2"
    d="M19.545 13.9l9.955 8.6">
  </path>
</symbol>
<symbol id="icon-user" viewBox="0 0 32 32">
  <path  d="M22.667 10.667c0 3.682-2.985 6.667-6.667 6.667s-6.667-2.985-6.667-6.667c0-3.682 2.985-6.667 6.667-6.667s6.667 2.985 6.667 6.667z" fill="none" stroke="currentColor" stroke-width="1"></path>
<path  d="M4 28c1.276-4.102 4.56-5.333 12-5.333s10.724 1.232 12 5.333" fill="none" stroke="currentColor" stroke-width="1" ></path>
</symbol>
<symbol id="icon-desirable" viewBox="0 0 37 32">
<path d="M33.582 2.483c-1.776-1.56-4.077-2.418-6.481-2.418-2.767 0-5.49 1.134-7.472 3.112l-0.781 0.778c-0.188 0.188-0.508 0.188-0.697 0l-1.027-1.024c-1.894-1.89-4.413-2.931-7.092-2.931-2.617 0-5.094 1-6.973 2.814-1.87 1.805-2.911 4.287-2.933 6.988-0.023 2.824 1.095 5.573 3.067 7.541l14.252 14.22c0.283 0.282 0.658 0.437 1.055 0.437s0.772-0.155 1.055-0.437l14.506-14.473c1.952-1.948 3.021-4.645 2.934-7.399-0.089-2.794-1.302-5.353-3.413-7.208zM33.355 16.382l-14.506 14.473c-0.188 0.188-0.51 0.188-0.697 0l-14.253-14.22c-1.784-1.779-2.794-4.267-2.773-6.824 0.020-2.431 0.953-4.66 2.627-6.277 1.692-1.634 3.922-2.534 6.279-2.534 2.413 0 4.681 0.938 6.387 2.64l1.026 1.024c0.565 0.564 1.545 0.564 2.11 0l0.78-0.778c1.796-1.792 4.263-2.82 6.766-2.82 2.161 0 4.228 0.77 5.821 2.169 1.902 1.67 2.993 3.974 3.073 6.488s-0.857 4.88-2.64 6.659z"></path>
</symbol>
<symbol id="icon-cart" viewBox="0 0 32 32">
<path d="M15.031 3.85c-0.238 0.050-0.662 0.206-0.938 0.331-1.213 0.575-2.006 1.463-2.444 2.725-0.162 0.463-0.175 0.594-0.213 1.75l-0.031 1.25-1 0.037c-1.156 0.037-1.469 0.125-2.075 0.588-0.625 0.475-1.025 1.119-1.144 1.838-0.031 0.231-0.406 3.237-0.825 6.694-0.681 5.669-0.75 6.319-0.688 6.675 0.194 1.15 1.088 2.119 2.231 2.419 0.325 0.081 1.362 0.094 8.094 0.094s7.769-0.012 8.094-0.094c1.144-0.3 2.038-1.269 2.231-2.419 0.063-0.356-0.006-1.012-0.694-6.675-0.413-3.456-0.788-6.463-0.819-6.681-0.125-0.731-0.525-1.381-1.144-1.85-0.606-0.463-0.919-0.55-2.075-0.588l-1-0.037-0.031-1.25c-0.038-1.156-0.050-1.287-0.212-1.75-0.506-1.469-1.575-2.5-3.069-2.969-0.581-0.181-1.637-0.225-2.25-0.087zM16.756 4.838c1.281 0.275 2.381 1.338 2.712 2.631 0.063 0.256 0.094 0.688 0.094 1.419v1.050h-7.125v-1.050c0-1.606 0.219-2.244 1.056-3.075 0.9-0.894 2.044-1.231 3.263-0.975zM11.438 11.869v0.938l0.162 0.125c0.244 0.194 0.481 0.169 0.675-0.063 0.156-0.188 0.162-0.219 0.162-1.063v-0.869h7.125v0.85c0 0.85 0.038 1.037 0.244 1.194 0.15 0.119 0.406 0.094 0.594-0.050l0.163-0.125v-1.881l0.956 0.025c1.056 0.025 1.238 0.075 1.731 0.525 0.4 0.363 0.55 0.756 0.656 1.688 0.050 0.444 0.4 3.35 0.781 6.463 0.462 3.756 0.681 5.75 0.656 5.944-0.056 0.419-0.394 0.981-0.75 1.25-0.6 0.456-0.050 0.431-8.6 0.431-6.919 0-7.706-0.012-7.975-0.1-0.644-0.219-1.088-0.675-1.306-1.337l-0.112-0.337 0.713-5.819c0.388-3.194 0.744-6.144 0.788-6.544 0.088-0.8 0.206-1.15 0.519-1.506 0.469-0.525 0.863-0.662 1.963-0.669h0.856z"></path>
</symbol>
</defs>
</svg>